<svg xmlns="http://www.w3.org/2000/svg" width="24" height="24" viewBox="0 0 24 24" fill="none">
<rect width="24" height="24" fill="white"/>
<path fill-rule="evenodd" clip-rule="evenodd" d="M1 1.5641C1 1.25256 1.23871 1 1.53318 1H3.98234C4.98195 1 5.84743 1.73453 6.06428 2.76692L6.75951 6.07691H20.8664C22.2308 6.07691 23.2443 7.41364 22.9483 8.8228L21.5265 15.592C21.3097 16.6244 20.4442 17.3589 19.4446 17.3589H9.74764C8.74804 17.3589 7.88255 16.6244 7.66571 15.592L5.02331 3.01166C4.91489 2.49547 4.48214 2.1282 3.98234 2.1282H1.53318C1.23871 2.1282 1 1.87565 1 1.5641ZM6.99648 7.20511L8.70668 15.3473C8.8151 15.8635 9.24784 16.2307 9.74764 16.2307H19.4446C19.9444 16.2307 20.3771 15.8635 20.4856 15.3473L21.9074 8.57806C22.0554 7.87348 21.5486 7.20511 20.8664 7.20511H6.99648Z" fill="#0071BD" stroke="#0071BD" strokeWidth="0.4" stroke-linecap="round" stroke-linejoin="round"/>
<path d="M10.0663 22.0719C10.7762 22.0719 11.3327 21.4665 11.3327 20.7437C11.3327 20.0209 10.7762 19.4155 10.0663 19.4155C9.35645 19.4155 8.79996 20.0209 8.79996 20.7437C8.79996 21.4665 9.35645 22.0719 10.0663 22.0719ZM11.999 20.7437C11.999 21.8902 11.1233 22.8001 10.0663 22.8001C9.00938 22.8001 8.13359 21.8902 8.13359 20.7437C8.13359 19.5972 9.00938 18.6873 10.0663 18.6873C11.1233 18.6873 11.999 19.5972 11.999 20.7437Z" fill="#0071BD" stroke="#0071BD" strokeWidth="0.4"/>
<path d="M18.5956 22.0719C19.3055 22.0719 19.862 21.4665 19.862 20.7437C19.862 20.0209 19.3055 19.4155 18.5956 19.4155C17.8857 19.4155 17.3293 20.0209 17.3293 20.7437C17.3293 21.4665 17.8857 22.0719 18.5956 22.0719ZM20.5283 20.7437C20.5283 21.8902 19.6526 22.8001 18.5956 22.8001C17.5387 22.8001 16.6629 21.8902 16.6629 20.7437C16.6629 19.5972 17.5387 18.6873 18.5956 18.6873C19.6526 18.6873 20.5283 19.5972 20.5283 20.7437Z" fill="#0071BD" stroke="#0071BD" strokeWidth="0.4"/>
</svg>