<svg xmlns="http://www.w3.org/2000/svg" width="22" height="22" viewBox="0 0 22 22" fill="none">
<path d="M14.4261 9H13.1932C13.1203 8.64536 12.9927 8.33381 12.8104 8.06534C12.6314 7.79688 12.4126 7.5715 12.1541 7.3892C11.8989 7.2036 11.6155 7.06439 11.304 6.97159C10.9924 6.87879 10.6676 6.83239 10.3295 6.83239C9.71307 6.83239 9.15459 6.98816 8.65412 7.29972C8.15696 7.61127 7.76089 8.07031 7.46591 8.67685C7.17424 9.28338 7.02841 10.0275 7.02841 10.9091C7.02841 11.7907 7.17424 12.5348 7.46591 13.1413C7.76089 13.7479 8.15696 14.2069 8.65412 14.5185C9.15459 14.83 9.71307 14.9858 10.3295 14.9858C10.6676 14.9858 10.9924 14.9394 11.304 14.8466C11.6155 14.7538 11.8989 14.6162 12.1541 14.4339C12.4126 14.2483 12.6314 14.0213 12.8104 13.7528C12.9927 13.4811 13.1203 13.1695 13.1932 12.8182H14.4261C14.3333 13.3385 14.1643 13.8042 13.919 14.2152C13.6738 14.6262 13.3688 14.9759 13.0043 15.2642C12.6397 15.5492 12.2304 15.7663 11.7763 15.9155C11.3255 16.0646 10.8433 16.1392 10.3295 16.1392C9.46117 16.1392 8.68892 15.9271 8.01278 15.5028C7.33665 15.0786 6.80469 14.4754 6.4169 13.6932C6.02912 12.911 5.83523 11.983 5.83523 10.9091C5.83523 9.83523 6.02912 8.9072 6.4169 8.125C6.80469 7.3428 7.33665 6.73958 8.01278 6.31534C8.68892 5.8911 9.46117 5.67898 10.3295 5.67898C10.8433 5.67898 11.3255 5.75355 11.7763 5.9027C12.2304 6.05185 12.6397 6.2706 13.0043 6.55895C13.3688 6.84399 13.6738 7.192 13.919 7.60298C14.1643 8.01065 14.3333 8.47633 14.4261 9Z" fill="#80A5BA"/>
<rect x="0.5" y="0.5" width="21" height="21" rx="10.5" stroke="#80A5BA"/>
</svg>